<svg width="30" height="30" fill="none" xmlns="http://www.w3.org/2000/svg"><path d="M24 3H6v18l9 9 9-9V3z" fill="#E00D0D"/><path d="M7 20.5V4h16v16.5l-8 8-8-8z" fill="#363636"/><path d="M11 19.375V8h3.5c1 0 1.893.227 2.68.68a4.673 4.673 0 0 1 1.851 1.922c.443.828.664 1.77.664 2.828v.523c0 1.057-.218 1.998-.656 2.82a4.646 4.646 0 0 1-1.836 1.915c-.791.453-1.685.682-2.68.687H11zm2.344-9.477v7.594h1.133c.916 0 1.617-.3 2.101-.898.485-.6.732-1.456.742-2.57v-.602c0-1.156-.24-2.031-.718-2.625-.48-.6-1.18-.899-2.102-.899h-1.156z" fill="#F80538"/><path d="M28.253 9.06c.165-.093.302-.229.397-.393a1.05 1.05 0 0 0 .017-1.078l-3.528-6.468-.026-.049a1.092 1.092 0 0 0-.4-.417l-.257.429.256-.43A1.091 1.091 0 0 0 24.155.5h-.002a1.091 1.091 0 0 0-.957.571v.001L19.64 7.59a1.05 1.05 0 0 0 .016 1.076c.096.165.233.301.399.395l.247-.434-.25.433c.168.097.353.145.544.145h7.113c.192 0 .375-.048.543-.144zm0 0-.001.001-.248-.434.25.433h-.001zm-4.545-1.688-.136.054m.136-.054-.147-.005c0 .02.003.04.01.06m.137-.055-.136.054m.136-.054-.136.054m.674-.406h-.185v-.186h.185v.186zm-.54-.186h.003-.004zm1.04.533v-.88a.148.148 0 0 0-.043-.108.142.142 0 0 0-.105-.045l.148 1.033zm-.745-3.496h.305l-.054 1.37h-.2L24 3.872z" fill="#DD4125" stroke="#fff"/></svg>