<svg width="40" height="40" fill="none" xmlns="http://www.w3.org/2000/svg"><path d="M12 3a5 5 0 0 0-5 5v16a5 5 0 0 0 5 5h4.422L20 33l3.578-4H28a5 5 0 0 0 5-5V8a5 5 0 0 0-5-5H12z" fill="url(#a)"/><circle cx="20" cy="38" r="2" fill="#DB4D1F"/><path d="M13 15v-3h2.578c1.503 0 2.254.441 2.254 1.692 0 .233-.047.453-.14.658-.093.205-.189.408-.42.546-.238.141-.7.104-.7.104H13zm-1-3.996V21h3.578c.541 0 1.003-.047 1.386-.14.392-.103.719-.229.98-.378.27-.159.485-.34.644-.546.159-.205.28-.41.364-.616.084-.215.14-.42.168-.616.028-.205.042-.387.042-.546 0-.653-.191-1.2-.574-1.638-.383-.448-.896-.714-1.54-.798v-.028c.261-.056.495-.154.7-.294.214-.14.396-.308.546-.504.159-.205.28-.43.364-.672a2.42 2.42 0 0 0 .126-.77c0-.467-.089-.854-.266-1.162a2.059 2.059 0 0 0-.714-.756 2.701 2.701 0 0 0-1.022-.406 5.602 5.602 0 0 0-1.204-.126H12zM13 20v-4h2.578c.85 0 1.498.361 1.946.688.457.317.686.798.686 1.442 0 .401-.07.737-.21 1.008-.14.261-.331.471-.574.63-.243.159-.84.222-.84.222s-.653.01-1.008.01H13zM21 11.004V21h3.384c1.521-.037 2.665-.462 3.43-1.274.775-.821 1.186-2.063 1.186-3.724s-.411-2.898-1.186-3.71c-.765-.821-1.909-1.25-3.43-1.288H21zM22 20v-8h1.908c.719 0 1.848.238 1.848.238s.875.186 1.288.544c.442.383.583.77.742 1.302.159.532.214 1.171.214 1.918 0 .747-.055 1.386-.214 1.918s-.406.966-.742 1.302c-.336.336-.52.469-1.075.64-.69.212-1.342.138-2.061.138H22z" fill="#fff"/><path d="M32.499.5h.002a1.14 1.14 0 0 1 1 .598l.03.053 3.822 7.008c.203.366.195.765-.017 1.125a1.13 1.13 0 0 1-.416.413M32.499.5l4.416 7.9a.598.598 0 0 1-.01.632.63.63 0 0 1-.552.316h-7.706a.626.626 0 0 1-.319-.085M32.498.5a1.14 1.14 0 0 0-1 .597h.001l.439.239-.44-.238-3.85 7.06M32.497.5l-4.834 8.784m9.256.413h-.001l-.247-.434.249.433h-.001zm0 0c-.175.1-.367.15-.567.15h-7.706c-.2 0-.392-.05-.567-.15m0 0h.001l.247-.434m-.248.433a1.13 1.13 0 0 1-.416-.412m.415.412h-.001l.25-.433m0 0-.664.021m0 0v.001l.431-.253-.432.25v.002zm0 0a1.096 1.096 0 0 1-.017-1.125m0 0v.001l.438.24-.437-.243v.002zm4.711-.88h.284v.285h-.284v-.285zm.284.632v-.013h.5l-.159.004h-.007l-.334.01zm-.351-3.842h.417l-.061 1.568h-.298l-.058-1.568zm-.277 3.21h.005-.005z" fill="#DD4125" stroke="#fff"/><defs><linearGradient id="a" x1="20" y1="3" x2="20" y2="32.578" gradientUnits="userSpaceOnUse"><stop offset=".448" stop-color="#EA6134"/><stop offset="1" stop-color="#E05122"/></linearGradient></defs></svg>