<svg width="40" height="40" fill="none" xmlns="http://www.w3.org/2000/svg"><path d="M12 3a5 5 0 0 0-5 5v16a5 5 0 0 0 5 5h4.422L20 33l3.578-4H28a5 5 0 0 0 5-5V8a5 5 0 0 0-5-5H12z" fill="url(#a)"/><circle cx="20" cy="38" r="2" fill="#DB4D1F"/><path d="M13 12.004V22h1v-5h5v-1h-5v-3h5v-.996h-6zM20 12.004V13h4v9h1v-9h4v-.996h-9z" fill="#fff"/><path d="M32.499.5h.002a1.14 1.14 0 0 1 1 .598l.03.053 3.822 7.008c.203.366.195.765-.017 1.125a1.13 1.13 0 0 1-.416.413M32.499.5l4.416 7.9a.598.598 0 0 1-.01.632.63.63 0 0 1-.552.316h-7.706a.626.626 0 0 1-.319-.085M32.498.5a1.14 1.14 0 0 0-1 .597h.001l.439.239-.44-.238-3.85 7.06M32.497.5l-4.834 8.784m9.256.413h-.001l-.247-.434.249.433h-.001zm0 0c-.175.1-.367.15-.567.15h-7.706c-.2 0-.392-.05-.567-.15m0 0h.001l.247-.434m-.248.433a1.13 1.13 0 0 1-.416-.412m.415.412h-.001l.25-.433m0 0-.664.021m0 0v.001l.431-.253-.432.25v.002zm0 0a1.096 1.096 0 0 1-.017-1.125m0 0v.001l.438.24-.437-.243v.002zm4.711-.88h.284v.285h-.284v-.285zm.284.632v-.013h.5l-.159.004h-.007l-.334.01zm-.351-3.842h.417l-.061 1.568h-.298l-.058-1.568zm-.277 3.21h.005-.005z" fill="#DD4125" stroke="#fff"/><defs><linearGradient id="a" x1="20" y1="3" x2="20" y2="32.578" gradientUnits="userSpaceOnUse"><stop offset=".448" stop-color="#EA6134"/><stop offset="1" stop-color="#E05122"/></linearGradient></defs></svg>