<svg width="30" height="30" fill="none" xmlns="http://www.w3.org/2000/svg"><path d="M26.998 18c0 6.627-5.373 12-12 12s-12-5.373-12-12 5.373-12 12-12 12 5.373 12 12z" fill="#D96840"/><path d="M18.198 19.2c.667 0 1.233.233 1.7.7.467.467.7 1.033.7 1.7s-.233 1.233-.7 1.7c-.467.467-1.033.7-1.7.7h-6.95c.45-.55.85-1.083 1.2-1.6h5.75c.217 0 .4-.075.55-.225a.79.79 0 0 0 .25-.575c0-.217-.083-.4-.25-.55a.712.712 0 0 0-.55-.25h-2.4a2.314 2.314 0 0 1-1.7-.7 2.314 2.314 0 0 1-.7-1.7c0-.667.233-1.233.7-1.7a2.314 2.314 0 0 1 1.7-.7h1.125c-.75-1.067-1.125-1.867-1.125-2.4 0-.667.233-1.233.7-1.7a2.314 2.314 0 0 1 1.7-.7c.667 0 1.233.233 1.7.7.467.467.7 1.033.7 1.7 0 .4-.2.933-.6 1.6-.4.667-.8 1.233-1.2 1.7l-.6.7h-2.4a.79.79 0 0 0-.575.25.748.748 0 0 0-.225.55c0 .217.075.408.225.575.167.15.358.225.575.225h2.4zm.55-6.15a.712.712 0 0 0-.55-.25.79.79 0 0 0-.575.25.748.748 0 0 0-.225.55c0 .217.075.408.225.575.167.15.358.225.575.225.217 0 .4-.075.55-.225a.79.79 0 0 0 .25-.575c0-.217-.083-.4-.25-.55zM8.498 18.3a2.314 2.314 0 0 1 1.7-.7c.667 0 1.233.233 1.7.7.467.467.7 1.033.7 1.7 0 .4-.2.933-.6 1.6-.4.667-.8 1.233-1.2 1.7l-.6.7c-.183-.2-.408-.458-.675-.775-.267-.317-.625-.833-1.075-1.55-.433-.717-.65-1.275-.65-1.675 0-.667.233-1.233.7-1.7zm1.125 2.275c.167.15.358.225.575.225.217 0 .4-.075.55-.225a.79.79 0 0 0 .25-.575c0-.217-.083-.4-.25-.55a.712.712 0 0 0-.55-.25.79.79 0 0 0-.575.25.748.748 0 0 0-.225.55c0 .217.075.408.225.575z" fill="#fff"/></svg>