<svg width="31" height="30" fill="none" xmlns="http://www.w3.org/2000/svg"><path d="M26.998 18c0 6.627-5.373 12-12 12s-12-5.373-12-12 5.373-12 12-12 12 5.373 12 12z" fill="#D96840"/><path d="M18.198 19.2c.667 0 1.233.233 1.7.7.467.467.7 1.033.7 1.7s-.233 1.233-.7 1.7c-.467.467-1.033.7-1.7.7h-6.95c.45-.55.85-1.083 1.2-1.6h5.75c.217 0 .4-.075.55-.225a.79.79 0 0 0 .25-.575c0-.217-.083-.4-.25-.55a.712.712 0 0 0-.55-.25h-2.4a2.314 2.314 0 0 1-1.7-.7 2.314 2.314 0 0 1-.7-1.7c0-.667.233-1.233.7-1.7a2.314 2.314 0 0 1 1.7-.7h1.125c-.75-1.067-1.125-1.867-1.125-2.4 0-.667.233-1.233.7-1.7a2.314 2.314 0 0 1 1.7-.7c.667 0 1.233.233 1.7.7.467.467.7 1.033.7 1.7 0 .4-.2.933-.6 1.6-.4.667-.8 1.233-1.2 1.7l-.6.7h-2.4a.79.79 0 0 0-.575.25.748.748 0 0 0-.225.55c0 .217.075.408.225.575.167.15.358.225.575.225h2.4zm.55-6.15a.712.712 0 0 0-.55-.25.79.79 0 0 0-.575.25.748.748 0 0 0-.225.55c0 .217.075.408.225.575.167.15.358.225.575.225.217 0 .4-.075.55-.225a.79.79 0 0 0 .25-.575c0-.217-.083-.4-.25-.55zM8.498 18.3a2.314 2.314 0 0 1 1.7-.7c.667 0 1.233.233 1.7.7.467.467.7 1.033.7 1.7 0 .4-.2.933-.6 1.6-.4.667-.8 1.233-1.2 1.7l-.6.7c-.183-.2-.408-.458-.675-.775-.267-.317-.625-.833-1.075-1.55-.433-.717-.65-1.275-.65-1.675 0-.667.233-1.233.7-1.7zm1.125 2.275c.167.15.358.225.575.225.217 0 .4-.075.55-.225a.79.79 0 0 0 .25-.575c0-.217-.083-.4-.25-.55a.712.712 0 0 0-.55-.25.79.79 0 0 0-.575.25.748.748 0 0 0-.225.55c0 .217.075.408.225.575z" fill="#fff"/><path d="m21.303 12.627-.25.433c.168.097.353.145.544.145h7.113a1.08 1.08 0 0 0 .94-.538 1.05 1.05 0 0 0 .017-1.078l-3.528-6.468-.026-.049a1.092 1.092 0 0 0-.958-.572h-.002a1.091 1.091 0 0 0-.957.572L20.64 11.59a1.05 1.05 0 0 0 .016 1.076c.096.165.233.301.399.395l.247-.434zm0 0a.581.581 0 0 1-.215-.213l8.14-.584a.552.552 0 0 1-.009.584.581.581 0 0 1-.509.291h-7.113a.577.577 0 0 1-.294-.078zm3.758-1.793h.185v.186h-.185v-.185zm.186.546v-.013h.499l-.146.004h-.007l-.346.01zm-.542-.546h.004-.004zm.547-1.592h-.2L25 7.87h.305l-.054 1.37z" fill="#DD4125" stroke="#fff"/></svg>