<svg width="39" height="47" fill="none" xmlns="http://www.w3.org/2000/svg"><path fill-rule="evenodd" clip-rule="evenodd" d="M18.5 47C28.717 47 37 38.717 37 28.5S28.717 10 18.5 10 0 18.283 0 28.5 8.283 47 18.5 47zm8.217-10.962v-6.71a.191.191 0 0 0-.014-.083L18.5 22.62l-8.203 6.625c0 .005 0 .01-.002.018a.334.334 0 0 1-.005.024.19.19 0 0 0-.007.042v6.709c0 .242.09.452.27.629.181.177.395.265.643.265h5.478v-5.367h3.652v5.367h5.478a.887.887 0 0 0 .642-.265.851.851 0 0 0 .271-.63zm2.297-6.64.885-1.034a.447.447 0 0 0 .1-.328.403.403 0 0 0-.157-.3l-3.125-2.544v-5.703a.43.43 0 0 0-.128-.321.45.45 0 0 0-.328-.126h-2.74a.45.45 0 0 0-.328.126.43.43 0 0 0-.128.321v2.726l-3.48-2.852A1.688 1.688 0 0 0 18.5 19c-.419 0-.78.121-1.084.363L7.159 27.735a.403.403 0 0 0-.157.301.447.447 0 0 0 .1.328l.884 1.035a.489.489 0 0 0 .3.153.538.538 0 0 0 .342-.097L18.5 21.39l9.872 8.065a.444.444 0 0 0 .3.098h.043a.489.489 0 0 0 .3-.154z" fill="#98CAA4"/><path d="M31.284 13.796v-1.907a.32.32 0 0 0-.095-.235.308.308 0 0 0-.226-.096h-1.926a.308.308 0 0 0-.226.096.32.32 0 0 0-.095.235v1.907a.32.32 0 0 0 .095.236.308.308 0 0 0 .226.095h1.926a.308.308 0 0 0 .226-.095.32.32 0 0 0 .095-.236zm-.02-3.753.18-4.605a.221.221 0 0 0-.1-.19c-.087-.074-.167-.111-.24-.111h-2.208c-.073 0-.154.037-.24.11-.067.047-.1.117-.1.211l.17 4.585c0 .067.033.122.1.166a.433.433 0 0 0 .24.065h1.857a.408.408 0 0 0 .236-.065.223.223 0 0 0 .105-.166zm-.14-9.37 7.705 14.126c.234.421.228.843-.02 1.264a1.26 1.26 0 0 1-.466.462c-.198.114-.41.17-.637.17H22.294c-.227 0-.44-.056-.637-.17a1.26 1.26 0 0 1-.466-.462c-.248-.421-.254-.842-.02-1.264L28.876.672A1.281 1.281 0 0 1 30 0a1.281 1.281 0 0 1 1.124.672z" fill="#bd2014"/></svg>