<svg width="27" height="21" xmlns="http://www.w3.org/2000/svg" xmlns:xlink="http://www.w3.org/1999/xlink" class="svg-static"><defs><filter x="-11.1%" y="-55.6%" width="122.2%" height="289%" filterUnits="objectBoundingBox" id="a"><feMorphology radius="1" operator="dilate" in="SourceAlpha" result="shadowSpreadOuter1"/><feOffset dy="2" in="shadowSpreadOuter1" result="shadowOffsetOuter1"/><feGaussianBlur stdDeviation="2" in="shadowOffsetOuter1" result="shadowBlurOuter1"/><feComposite in="shadowBlurOuter1" in2="SourceAlpha" operator="out" result="shadowBlurOuter1"/><feColorMatrix values="0 0 0 0 0 0 0 0 0 0 0 0 0 0 0 0 0 0 0.261755456 0" in="shadowBlurOuter1"/></filter><path d="M0 7.5h4.397a4 4 0 0 0 2.875-1.22L10.4 3.047a4 4 0 0 1 5.818.07l2.85 3.094a4 4 0 0 0 2.941 1.29H27 0z" id="b"/></defs><g fill="none" fill-rule="evenodd"><g transform="translate(0 2)"><use fill="#000" filter="url(#a)" xlink:href="#b"/><path stroke="#E3E3E3" d="M13.2 1.328a4.486 4.486 0 0 1 3.214 1.274l3.02 3.27A3.5 3.5 0 0 0 22.01 7v1H4.397V7a3.5 3.5 0 0 0 2.515-1.067l3.129-3.235a4.486 4.486 0 0 1 3.16-1.37z" fill="#FFF"/></g><path d="M0 9.5h4.397a4 4 0 0 0 2.875-1.22L10.4 5.047a4 4 0 0 1 5.818.07l2.85 3.094a4 4 0 0 0 2.941 1.29H27V21H0V9.5z" fill="#FFF"/></g></svg>