<svg width="32" height="32" fill="none" xmlns="http://www.w3.org/2000/svg"><path d="M5 5.063C8.042 2.02 11.708.5 16 .5s7.938 1.52 10.938 4.563c3.041 3 4.562 6.645 4.562 10.937s-1.52 7.958-4.563 11c-3 3-6.645 4.5-10.937 4.5S8.042 30 5 27C2 23.958.5 20.292.5 16S2 8.062 5 5.062Zm18.625 15L19.5 16l4.125-4.063c.333-.374.333-.729 0-1.062l-2.5-2.5c-.333-.333-.688-.333-1.063 0L16 12.5l-4.063-4.125c-.374-.333-.729-.333-1.062 0l-2.5 2.5c-.333.333-.333.688 0 1.063L12.5 16l-4.125 4.063c-.333.375-.333.729 0 1.062l2.5 2.5c.333.333.688.333 1.063 0L16 19.5l4.063 4.125c.375.333.729.333 1.062 0l2.5-2.5c.333-.333.333-.688 0-1.063Z" fill="#B4251C"/></svg>