<svg width="31" height="26" viewBox="0 0 31 26" fill="none" xmlns="http://www.w3.org/2000/svg">
<g clip-path="url(#clip0_221_2260)">
<path d="M14.6339 6.11432C14.6329 5.86435 14.5328 5.62498 14.3556 5.44868C14.1784 5.27238 13.9385 5.17354 13.6886 5.17383H12.7432C12.4932 5.17354 12.2534 5.27238 12.0761 5.44868C11.8989 5.62498 11.7989 5.86435 11.7979 6.11432V7.05482C11.7987 7.30478 11.8988 7.54418 12.076 7.72043C12.2533 7.89667 12.4932 7.99535 12.7432 7.99477H13.6886C13.9385 7.99535 14.1785 7.89667 14.3558 7.72043C14.533 7.54418 14.6331 7.30478 14.6339 7.05482V6.11432ZM12.7432 7.05482V6.11432H13.6886V7.05482H12.7432Z" fill="white"/>
<path d="M18.4157 6.11432C18.4147 5.86435 18.3146 5.62498 18.1374 5.44868C17.9602 5.27238 17.7203 5.17354 17.4703 5.17383H16.5249C16.275 5.17354 16.0351 5.27238 15.8579 5.44868C15.6807 5.62498 15.5806 5.86435 15.5796 6.11432V7.05482C15.5804 7.30478 15.6805 7.54418 15.8578 7.72043C16.035 7.89667 16.275 7.99535 16.5249 7.99477H17.4703C17.7203 7.99535 17.9602 7.89667 18.1375 7.72043C18.3148 7.54418 18.4148 7.30478 18.4157 7.05482V6.11432ZM16.5249 7.05482V6.11432H17.4703V7.05482H16.5249Z" fill="white"/>
<path d="M14.6339 9.87507C14.6329 9.6251 14.5328 9.38572 14.3556 9.20942C14.1784 9.03312 13.9385 8.93428 13.6886 8.93457H12.7432C12.4932 8.93428 12.2534 9.03312 12.0761 9.20942C11.8989 9.38572 11.7989 9.6251 11.7979 9.87507V10.8156C11.7987 11.0655 11.8988 11.3049 12.076 11.4812C12.2533 11.6574 12.4932 11.7561 12.7432 11.7555H13.6886C13.9385 11.7561 14.1785 11.6574 14.3558 11.4812C14.533 11.3049 14.6331 11.0655 14.6339 10.8156V9.87507ZM12.7432 10.8156V9.87507H13.6886V10.8156H12.7432Z" fill="white"/>
<path d="M18.4157 9.87507C18.4147 9.6251 18.3146 9.38572 18.1374 9.20942C17.9602 9.03312 17.7203 8.93428 17.4703 8.93457H16.5249C16.275 8.93428 16.0351 9.03312 15.8579 9.20942C15.6807 9.38572 15.5806 9.6251 15.5796 9.87507V10.8156C15.5804 11.0655 15.6805 11.3049 15.8578 11.4812C16.035 11.6574 16.275 11.7561 16.5249 11.7555H17.4703C17.7203 11.7561 17.9602 11.6574 18.1375 11.4812C18.3148 11.3049 18.4148 11.0655 18.4157 10.8156V9.87507ZM16.5249 10.8156V9.87507H17.4703V10.8156H16.5249Z" fill="white"/>
<path d="M14.6339 13.6358C14.6329 13.3858 14.5328 13.1465 14.3556 12.9702C14.1784 12.7939 13.9385 12.695 13.6886 12.6953H12.7432C12.4932 12.695 12.2534 12.7939 12.0761 12.9702C11.8989 13.1465 11.7989 13.3858 11.7979 13.6358V14.5763C11.7987 14.8263 11.8988 15.0657 12.076 15.2419C12.2533 15.4182 12.4932 15.5168 12.7432 15.5163H13.6886C13.9385 15.5168 14.1785 15.4182 14.3558 15.2419C14.533 15.0657 14.6331 14.8263 14.6339 14.5763V13.6358ZM12.7432 14.5763V13.6358H13.6886V14.5763H12.7432Z" fill="white"/>
<path d="M18.4157 13.6358C18.4147 13.3858 18.3146 13.1465 18.1374 12.9702C17.9602 12.7939 17.7203 12.695 17.4703 12.6953H16.5249C16.275 12.695 16.0351 12.7939 15.8579 12.9702C15.6807 13.1465 15.5806 13.3858 15.5796 13.6358V14.5763C15.5804 14.8263 15.6805 15.0657 15.8578 15.2419C16.035 15.4182 16.275 15.5168 16.5249 15.5163H17.4703C17.7203 15.5168 17.9602 15.4182 18.1375 15.2419C18.3148 15.0657 18.4148 14.8263 18.4157 14.5763V13.6358ZM16.5249 14.5763V13.6358H17.4703V14.5763H16.5249Z" fill="white"/>
<path d="M17.4703 16.458H16.5249C16.2749 16.4574 16.0348 16.5562 15.8576 16.7325C15.6803 16.9089 15.5803 17.1484 15.5796 17.3985V18.3385C15.5804 18.5884 15.6805 18.8278 15.8578 19.0041C16.035 19.1803 16.275 19.279 16.5249 19.2784H17.4703C17.7203 19.279 17.9602 19.1803 18.1375 19.0041C18.3148 18.8278 18.4148 18.5884 18.4157 18.3385V17.3985C18.4149 17.1484 18.315 16.9089 18.1377 16.7325C17.9604 16.5562 17.7204 16.4574 17.4703 16.458ZM16.5249 18.3385V17.3985H17.4703V18.3385H16.5249Z" fill="white"/>
<path d="M4.72637 14.8882C4.72776 14.5604 4.61541 14.2423 4.40849 13.9881C4.20157 13.7339 3.91288 13.5593 3.59164 13.4941C3.2704 13.4289 2.9365 13.4772 2.64686 13.6306C2.35721 13.7841 2.12975 14.0333 2.00326 14.3357C1.87677 14.6381 1.85908 14.975 1.9532 15.2889C2.04732 15.6029 2.24743 15.8745 2.51941 16.0575C2.79138 16.2405 3.1184 16.3234 3.4447 16.2922C3.771 16.2611 4.07638 16.1177 4.30879 15.8865C4.57457 15.6221 4.72473 15.2631 4.72637 14.8882ZM2.83566 14.8882C2.83538 14.7792 2.87291 14.6735 2.94183 14.5891C3.01075 14.5047 3.10681 14.4468 3.21364 14.4253C3.32048 14.4037 3.43147 14.4199 3.52771 14.471C3.62395 14.5222 3.69949 14.6051 3.74145 14.7057C3.78341 14.8062 3.78921 14.9183 3.75784 15.0226C3.72647 15.127 3.65988 15.2173 3.56943 15.278C3.47897 15.3388 3.37024 15.3663 3.26175 15.3559C3.15327 15.3455 3.05175 15.2978 2.97449 15.221C2.88606 15.1328 2.83615 15.0131 2.83566 14.8882Z" fill="white"/>
<path d="M26.9422 15.8295C25.1179 15.8295 23.6334 17.2486 23.6334 18.9929C23.6334 20.3089 25.2843 22.6944 26.0152 23.6862C23.6642 24.4549 19.9109 25.0605 15.0982 25.0605C13.8017 25.0605 12.5803 25.0157 11.4426 24.9368C12.2195 23.8656 13.7072 21.6518 13.7072 20.4034C13.7072 18.6585 12.2227 17.24 10.3984 17.24C8.57416 17.24 7.08968 18.6591 7.08968 20.4023C7.08968 21.5729 8.39751 23.5922 9.20134 24.724C4.26712 24.1227 1.40404 22.8332 1.40404 21.8366C1.40404 21.0571 3.15214 20.1009 6.26911 19.4332C6.36049 19.0689 6.50289 18.7194 6.69209 18.3949C5.96984 18.5316 5.28756 18.6883 4.65823 18.8633C5.46421 17.7062 6.61646 15.8614 6.61646 14.7621C6.61646 13.0172 5.13199 11.5986 3.30772 11.5986C1.48345 11.5986 -0.000488281 13.0177 -0.000488281 14.7621C-0.000488281 16.1666 1.87456 18.7828 2.51254 19.632C1.23172 20.2349 0.459765 20.9717 0.459765 21.8366C0.459765 24.5408 8.00208 26.0005 15.0993 26.0005C19.637 26.0005 24.3476 25.4024 27.1615 24.2659C27.377 24.216 27.5681 24.0921 27.7017 23.9158C28.297 23.1228 30.2509 20.4234 30.2509 18.9929C30.2509 17.2486 28.7664 15.8295 26.9422 15.8295ZM0.944868 14.7621C0.944868 13.5342 2.00313 12.5386 3.30826 12.5386C4.61339 12.5386 5.67165 13.5336 5.67165 14.7621C5.67165 15.9905 3.30826 19.1204 3.30826 19.1204C3.30826 19.1204 0.944868 15.9899 0.944868 14.7621ZM8.03504 20.4023C8.03504 19.1744 9.0933 18.1788 10.3984 18.1788C11.7036 18.1788 12.7618 19.1739 12.7618 20.4023C12.7618 21.6307 10.3984 24.7601 10.3984 24.7601C10.3984 24.7601 8.03504 21.6313 8.03504 20.4023ZM26.9481 23.3421L26.9389 23.3459C26.873 23.2589 24.5788 20.2025 24.5788 18.9919C24.5788 17.764 25.6365 16.7684 26.9422 16.7684C28.2478 16.7684 29.3055 17.764 29.3055 18.9919C29.3055 20.1857 27.0723 23.1763 26.9481 23.3421Z" fill="white"/>
<path d="M26.9422 17.9443C26.6144 17.9447 26.2969 18.0588 26.0438 18.267C25.7906 18.4753 25.6176 18.7649 25.5541 19.0865C25.4907 19.4081 25.5407 19.7418 25.6957 20.0306C25.8507 20.3194 26.1011 20.5455 26.4042 20.6704C26.7073 20.7952 27.0443 20.8111 27.3578 20.7153C27.6712 20.6195 27.9418 20.4179 28.1233 20.145C28.3047 19.872 28.3859 19.5445 28.353 19.2184C28.3201 18.8923 28.175 18.5877 27.9426 18.3565C27.8112 18.2254 27.6551 18.1215 27.4834 18.0508C27.3118 17.9801 27.1278 17.9439 26.9422 17.9443ZM26.9422 19.8248C26.8493 19.8243 26.7587 19.7962 26.6818 19.7443C26.6049 19.6923 26.5451 19.6187 26.5099 19.5328C26.4747 19.4469 26.4658 19.3525 26.4843 19.2615C26.5027 19.1705 26.5477 19.087 26.6135 19.0215C26.6793 18.9561 26.7631 18.9116 26.8542 18.8937C26.9453 18.8758 27.0396 18.8852 27.1253 18.9209C27.2111 18.9565 27.2843 19.0168 27.3358 19.094C27.3873 19.1712 27.4148 19.262 27.4148 19.3548C27.4148 19.4168 27.4026 19.4781 27.3788 19.5353C27.355 19.5925 27.3202 19.6444 27.2762 19.6881C27.2323 19.7318 27.1802 19.7663 27.1229 19.7898C27.0655 19.8133 27.0041 19.8251 26.9422 19.8248Z" fill="white"/>
<path d="M13.6885 16.458H12.7432C12.5284 16.4584 12.3204 16.5326 12.1538 16.6682C12.5672 16.8495 12.9492 17.0953 13.2855 17.3963H13.6896V17.8047C13.984 18.1522 14.2179 18.5466 14.3816 18.9716C14.5437 18.7997 14.6343 18.5726 14.635 18.3363V17.3963C14.6337 17.1465 14.5333 16.9073 14.3558 16.7314C14.1784 16.5555 13.9384 16.4572 13.6885 16.458Z" fill="white"/>
<path d="M10.3983 19.1201C10.0705 19.1202 9.75285 19.2341 9.49956 19.4422C9.24628 19.6504 9.07304 19.9399 9.00938 20.2615C8.94573 20.5831 8.9956 20.9168 9.1505 21.2058C9.30539 21.4947 9.55572 21.721 9.85879 21.846C10.1619 21.971 10.4989 21.9869 10.8125 21.8912C11.126 21.7955 11.3966 21.5939 11.5782 21.321C11.7598 21.048 11.841 20.7205 11.8081 20.3943C11.7752 20.0682 11.6301 19.7635 11.3977 19.5323C11.2663 19.4011 11.1102 19.2972 10.9386 19.2265C10.7669 19.1558 10.5829 19.1196 10.3972 19.1201H10.3983ZM10.3983 21.0006C10.3055 21 10.2149 20.972 10.138 20.9201C10.061 20.8681 10.0012 20.7945 9.96605 20.7086C9.9309 20.6227 9.92197 20.5283 9.94041 20.4373C9.95885 20.3463 10.0038 20.2628 10.0697 20.1973C10.1355 20.1319 10.2192 20.0874 10.3103 20.0695C10.4014 20.0515 10.4958 20.061 10.5815 20.0967C10.6672 20.1323 10.7405 20.1925 10.792 20.2698C10.8435 20.347 10.871 20.4378 10.871 20.5306C10.871 20.5925 10.8588 20.6539 10.835 20.7111C10.8112 20.7683 10.7763 20.8202 10.7324 20.8639C10.6885 20.9076 10.6363 20.9421 10.579 20.9656C10.5217 20.989 10.4603 21.0009 10.3983 21.0006Z" fill="white"/>
<path d="M19.8336 22.0976C19.9586 22.0979 20.0786 22.0485 20.1672 21.9604C20.2559 21.8723 20.3059 21.7526 20.3063 21.6276V18.8726C21.1587 18.9617 21.9545 19.0713 22.6902 19.1967C22.6934 18.8848 22.7335 18.5743 22.8096 18.2718C22.0101 18.1379 21.1706 18.0255 20.3063 17.9364V4.23358C20.3056 3.98352 20.2056 3.74398 20.0283 3.56762C19.8511 3.39126 19.611 3.29251 19.3609 3.29308H18.8883V2.35259C18.8874 2.10262 18.7874 1.86322 18.6101 1.68698C18.4328 1.51073 18.1929 1.41206 17.9429 1.41263H17.7063V0.472678C17.7063 0.347316 17.6565 0.227088 17.5679 0.138444C17.4792 0.0497997 17.359 0 17.2336 0C17.1083 0 16.988 0.0497997 16.8994 0.138444C16.8107 0.227088 16.7609 0.347316 16.7609 0.472678V1.41263H16.5249C16.2749 1.41206 16.0349 1.51073 15.8577 1.68698C15.6804 1.86322 15.5804 2.10262 15.5795 2.35259V3.29308H14.6342V2.35259C14.6333 2.10262 14.5333 1.86322 14.356 1.68698C14.1787 1.51073 13.9388 1.41206 13.6888 1.41263H13.4506V0.472678C13.4506 0.347316 13.4008 0.227088 13.3121 0.138444C13.2235 0.0497997 13.1033 0 12.9779 0C12.8525 0 12.7323 0.0497997 12.6437 0.138444C12.555 0.227088 12.5052 0.347316 12.5052 0.472678V1.41263H12.2692C12.0192 1.41206 11.7792 1.51073 11.602 1.68698C11.4247 1.86322 11.3247 2.10262 11.3238 2.35259V3.29308H10.8511C10.6011 3.29251 10.361 3.39126 10.1837 3.56762C10.0065 3.74398 9.90648 3.98352 9.90576 4.23358V16.3287C10.2196 16.2908 10.5368 16.2888 10.8511 16.3228V4.23304H19.3593V21.6276C19.3595 21.6895 19.3718 21.7508 19.3956 21.8079C19.4195 21.865 19.4544 21.9169 19.4983 21.9606C19.5422 22.0042 19.5942 22.0388 19.6515 22.0623C19.7088 22.0858 19.7701 22.0978 19.832 22.0976H19.8336ZM13.6888 3.29308H12.2708V2.35259H13.6888V3.29308ZM17.9429 3.29308H16.5249V2.35259H17.9429V3.29308Z" fill="white"/>
</g>
<defs>
<clipPath id="clip0_221_2260">
<rect width="30.2514" height="26" fill="white"/>
</clipPath>
</defs>
</svg>
