<svg width="38" height="32" fill="none" xmlns="http://www.w3.org/2000/svg"><path d="M36.688 27.5c.541 1 .52 2-.063 3-.542 1-1.396 1.5-2.563 1.5h-30c-1.166 0-2.041-.5-2.625-1.5-.541-1-.541-2 0-3l15-26c.584-1 1.459-1.5 2.625-1.5 1.167 0 2.042.5 2.625 1.5l15 26ZM21.062 23a2.622 2.622 0 0 0-2-.875c-.791 0-1.479.292-2.062.875-.542.542-.813 1.208-.813 2s.271 1.48.813 2.063c.583.541 1.27.812 2.063.812.791 0 1.458-.27 2-.813.583-.583.875-1.27.875-2.062 0-.792-.292-1.458-.875-2Zm-4.75-11.188.5 8.5c0 .459.25.688.75.688h3c.5 0 .75-.23.75-.688l.5-8.5c0-.25-.083-.437-.25-.562a.594.594 0 0 0-.5-.25h-4a.777.777 0 0 0-.562.25c-.125.125-.188.313-.188.563Z" fill="#EC840B"/></svg>