<svg width="36" height="37" fill="none" xmlns="http://www.w3.org/2000/svg"><path d="M20.39 1.484c.657.657.985 1.454.985 2.391 0 .938-.328 1.734-.984 2.39-.657.657-1.453.985-2.391.985s-1.734-.328-2.39-.984c-.657-.657-.985-1.454-.985-2.391 0-.938.328-1.734.984-2.39C16.266.827 17.063.5 18 .5c.938 0 1.734.328 2.39.984Zm-4.78 29.25c.656-.656 1.453-.984 2.39-.984.938 0 1.734.328 2.39.984.657.657.985 1.453.985 2.391s-.328 1.734-.984 2.39c-.657.657-1.453.985-2.391.985s-1.734-.328-2.39-.984c-.657-.657-.985-1.453-.985-2.391s.328-1.734.984-2.39ZM30.233 16.11c.657-.656 1.453-.984 2.391-.984s1.734.328 2.39.984c.657.657.985 1.453.985 2.391s-.328 1.734-.984 2.39c-.657.657-1.453.985-2.391.985s-1.734-.328-2.39-.984c-.657-.657-.985-1.453-.985-2.391s.328-1.734.984-2.39Zm-24.468 0c.656.657.984 1.453.984 2.391s-.328 1.734-.984 2.39c-.657.657-1.454.985-2.391.985-.938 0-1.734-.328-2.39-.984C.327 20.234 0 19.438 0 18.5s.328-1.734.984-2.39c.657-.657 1.454-.985 2.391-.985.938 0 1.734.328 2.39.984Zm-.493 10.336c.657-.656 1.454-.984 2.391-.984.938 0 1.734.328 2.39.984.657.657.985 1.453.985 2.39 0 .938-.328 1.735-.984 2.392-.657.656-1.453.984-2.39.984-.938 0-1.735-.328-2.392-.984-.656-.657-.984-1.454-.984-2.391 0-.938.328-1.734.984-2.39Zm20.672 0c.657-.656 1.453-.984 2.39-.984.938 0 1.735.328 2.392.984.656.657.984 1.453.984 2.39 0 .938-.328 1.735-.984 2.392-.657.656-1.454.984-2.391.984-.938 0-1.734-.328-2.39-.984-.657-.657-.985-1.454-.985-2.391 0-.938.328-1.734.984-2.39ZM5.273 5.773c.657-.656 1.454-.984 2.391-.984.938 0 1.734.328 2.39.984.657.657.985 1.454.985 2.391 0 .938-.328 1.734-.984 2.39-.657.657-1.453.985-2.39.985-.938 0-1.735-.328-2.392-.984-.656-.657-.984-1.453-.984-2.39 0-.938.328-1.735.984-2.392Z" fill="#3A7EDF"/></svg>