<svg width="32" height="32" fill="none" xmlns="http://www.w3.org/2000/svg"><path d="M26.938 5.063c3.041 3 4.562 6.645 4.562 10.937s-1.52 7.958-4.563 11c-3 3-6.645 4.5-10.937 4.5S8.042 30 5 27C2 23.958.5 20.292.5 16S2 8.062 5 5.062C8.042 2.022 11.708.5 16 .5s7.938 1.52 10.938 4.563Zm-12.75 19.125 11.5-11.5c.5-.459.5-.917 0-1.376l-1.375-1.437c-.5-.458-.98-.458-1.438 0L13.5 19.25l-4.375-4.375c-.458-.458-.938-.458-1.438 0l-1.375 1.438c-.5.458-.5.916 0 1.375l6.5 6.5c.459.5.917.5 1.376 0Z" fill="#32B41C"/></svg>