<svg width="18" height="18" viewBox="0 0 18 18" fill="none" xmlns="http://www.w3.org/2000/svg">
<path d="M10.7225 18H7.83345C7.05583 18 6.38916 17.3474 6.38916 16.5863V15.9878C5.7225 15.7701 5.11154 15.4984 4.55583 15.1175L3.88916 15.4984C3.22249 15.8792 2.27821 15.6615 1.88916 14.9544L0.444873 12.5073C0.0558255 11.8547 0.278207 10.9845 1.00059 10.5496L1.33392 10.3319C1.27821 9.95111 1.22249 9.46169 1.22249 9.0268C1.22249 8.75506 1.22249 8.53738 1.27821 8.2111L0.722493 7.88482C0.389159 7.72168 0.166778 7.3954 0.0558255 7.01458C-0.0551269 6.63376 0.000111194 6.25388 0.222492 5.9276L1.66678 3.48049C2.05583 2.82793 2.9444 2.55618 3.66678 2.93653L4.11107 3.20828C4.66678 2.77339 5.22202 2.44711 5.88869 2.1749V1.41373C5.88869 0.652562 6.55535 0 7.33297 0H10.222C10.9996 0 11.6663 0.652562 11.6663 1.41373V2.1749C12.222 2.39257 12.722 2.66432 13.222 3.04514L14.1663 2.50118C14.833 2.12036 15.722 2.33804 16.1663 3.04514L17.6106 5.49224C17.7773 5.81853 17.833 6.19934 17.7773 6.57969C17.7215 6.96051 17.4439 7.23226 17.1106 7.44993L16.1663 7.93935C16.222 8.32017 16.222 8.64645 16.222 9.0268V9.51622L17.2777 10.1147C17.6111 10.2779 17.8335 10.6041 17.9444 10.985C18.0554 11.3658 18.0001 11.7461 17.7777 12.0724L16.3335 14.5195C15.9444 15.1721 15.0558 15.4438 14.3335 15.0635L13.5558 14.6286C13.1115 15.0094 12.6115 15.3357 12.1115 15.6074V16.6403C12.1668 17.3474 11.5001 18 10.7225 18ZM4.55583 13.976C4.72249 13.976 4.88916 14.0306 5.00011 14.1392C5.61107 14.574 6.2225 14.8463 6.9444 15.0635C7.27773 15.1721 7.50012 15.4443 7.50012 15.7706V16.5863C7.50012 16.7494 7.66678 16.9126 7.83345 16.9126H10.7225C10.8892 16.9126 11.0558 16.7494 11.0558 16.5863V15.3352C11.0558 15.0635 11.2225 14.7913 11.5001 14.6281C12.0558 14.3564 12.6111 14.0301 13.0558 13.5947C13.2782 13.3771 13.6668 13.323 13.9449 13.4861L14.9449 14.0301C15.1115 14.1387 15.3339 14.0846 15.3892 13.9215L16.8335 11.4744C16.8892 11.4198 16.8892 11.3112 16.8892 11.2026C16.8892 11.094 16.8335 11.0395 16.7225 10.985L15.5001 10.2779C15.2225 10.1147 15.1111 9.84297 15.1111 9.57076C15.1111 9.35308 15.1668 9.18994 15.1668 8.97273C15.1668 8.59192 15.1111 8.21157 15.0558 7.83075C15.0001 7.50447 15.1668 7.17819 15.4449 7.06958L16.5006 6.47155C16.5563 6.41702 16.6116 6.36295 16.6673 6.25388C16.723 6.14527 16.6673 6.09074 16.6115 5.98213L15.1115 3.64363C15.0006 3.48049 14.8339 3.42595 14.6673 3.53502L13.5006 4.13305C13.223 4.29619 12.8896 4.24166 12.6673 4.07851C12.1673 3.6977 11.6115 3.37142 11.0006 3.15421C10.723 3.0456 10.5006 2.77339 10.5006 2.44711V1.41373C10.5006 1.25059 10.3339 1.08745 10.1673 1.08745H7.27821C7.11154 1.08745 6.94488 1.25059 6.94488 1.41373V2.50164C6.94488 2.82793 6.7225 3.09967 6.44488 3.20874C5.77821 3.48049 5.16726 3.80677 4.61154 4.29619C4.38916 4.51387 4.00059 4.51387 3.72249 4.35073L3.05583 3.96991C2.88916 3.8613 2.66678 3.91537 2.61154 4.07851L1.16678 6.52562C1.11106 6.58016 1.11106 6.68876 1.11106 6.79737C1.11106 6.90597 1.16678 6.96051 1.27773 7.01505L2.00011 7.44993C2.27773 7.61307 2.4444 7.88482 2.38916 8.2111C2.33345 8.48331 2.33345 8.75552 2.33345 9.02727C2.33345 9.46215 2.38916 9.95158 2.50011 10.3869C2.55583 10.7132 2.4444 11.0395 2.11106 11.2026L1.55535 11.5289C1.38868 11.6375 1.33297 11.8007 1.4444 11.9638L2.88868 14.4109C2.99964 14.574 3.1663 14.6286 3.33297 14.5195L4.1663 14.0301C4.27773 14.0301 4.4444 13.976 4.55583 13.976ZM9.00012 12.8881C6.83345 12.8881 5.05583 11.1481 5.05583 9.02727C5.05583 6.90644 6.83345 5.16643 9.00012 5.16643C11.1668 5.16643 12.9444 6.90644 12.9444 9.02727C12.9444 11.1481 11.1668 12.8881 9.00012 12.8881ZM9.00012 6.25388C7.4444 6.25388 6.16678 7.50447 6.16678 9.02727C6.16678 10.5501 7.4444 11.8007 9.00012 11.8007C10.5558 11.8007 11.8335 10.5501 11.8335 9.02727C11.8335 7.50447 10.5558 6.25388 9.00012 6.25388Z" fill="#40C057"/>
</svg>
