<svg width="14" height="15" xmlns="http://www.w3.org/2000/svg"><path d="M10.934 14.25c.365 0 .675-.128.93-.383s.383-.565.383-.93V3.75h.437A.426.426 0 0 0 13 3.627a.426.426 0 0 0 .123-.314v-.438a.426.426 0 0 0-.123-.314.426.426 0 0 0-.315-.123h-2.242l-.93-1.56C9.257.46 8.874.25 8.364.25H5.63c-.51 0-.894.21-1.149.629l-.93 1.558H1.31a.426.426 0 0 0-.314.124.426.426 0 0 0-.123.314v.438c0 .127.04.232.123.314a.426.426 0 0 0 .314.123h.438v9.188c0 .364.127.674.383.93.255.254.565.382.93.382h7.874zM8.911 2.437H5.083l.492-.792c.036-.055.082-.083.137-.083h2.57c.055 0 .1.028.137.083l.492.792zm2.023 10.5H3.06V3.75h7.875v9.188zm-2.078-1.312c.219 0 .328-.11.328-.328V5.39c0-.22-.11-.329-.328-.329H8.2c-.219 0-.328.11-.328.329v5.906c0 .219.11.328.328.328h.656zm-3.062 0c.218 0 .328-.11.328-.328V5.39c0-.22-.11-.329-.328-.329h-.657c-.218 0-.328.11-.328.329v5.906c0 .219.11.328.328.328h.657z" fill="#888" fill-rule="nonzero"/></svg>