<svg width="30" height="30" fill="none" xmlns="http://www.w3.org/2000/svg"><path d="M15 30a7 7 0 1 0 0-14 7 7 0 0 0 0 14z" fill="#1F7DE6"/><path d="M16 18h-2v5.29l-2.898 2.9.71.7L15 23.707l3.19 3.183.704-.7L16 23.29V18z" fill="#fff"/><path d="M26.253 21.06a1.08 1.08 0 0 0 .397-.392 1.05 1.05 0 0 0 .017-1.079l-3.528-6.468-.026-.049a1.092 1.092 0 0 0-.4-.417l-.257.429.256-.43a1.092 1.092 0 0 0-.557-.154h-.002a1.092 1.092 0 0 0-.958.572l-3.554 6.518a1.05 1.05 0 0 0 .016 1.076c.096.165.233.301.399.395l.247-.434-.25.433c.168.097.353.145.544.145h7.113c.192 0 .375-.048.543-.144zm0 0-.001.001-.248-.434.25.433h-.001zm-4.545-1.688-.136.054m.136-.054-.147-.005c0 .02.003.04.01.06m.137-.055-.136.054m.136-.054-.136.054m.674-.406h-.185v-.186h.185v.186zm-.54-.186h.003-.004zm1.04.533v-.88a.147.147 0 0 0-.043-.108.14.14 0 0 0-.105-.045l.148 1.033zm-.745-3.496h.305l-.054 1.37h-.2L22 15.872z" fill="#DD4125" stroke="#fff"/></svg>