<svg width="30" height="30" fill="none" xmlns="http://www.w3.org/2000/svg"><path d="M15 30a7 7 0 1 0 0-14 7 7 0 0 0 0 14z" fill="#1F7DE6"/><path d="M16 18h-2v5.29l-2.898 2.9.71.7L15 23.707l3.19 3.183.704-.7L16 23.29V18z" fill="#fff"/><path d="m18.303 20.627-.25.433c.168.097.353.145.544.145h7.113a1.08 1.08 0 0 0 .94-.538 1.05 1.05 0 0 0 .017-1.078l-3.528-6.468-.026-.049a1.092 1.092 0 0 0-.958-.572h-.002a1.092 1.092 0 0 0-.958.572l-3.554 6.518a1.05 1.05 0 0 0 .016 1.076c.096.165.233.301.399.395l.247-.434zm0 0a.581.581 0 0 1-.215-.213l8.14-.584a.552.552 0 0 1-.009.584.581.581 0 0 1-.509.291h-7.113a.577.577 0 0 1-.294-.078zm3.758-1.793h.185v.186h-.185v-.186zm.186.547v-.014h.499l-.146.004h-.007l-.346.01zm-.542-.547h.004-.004zm.547-1.592h-.2L22 15.87h.305l-.054 1.37z" fill="#DD4125" stroke="#fff"/></svg>